<svg width="18" height="18" viewBox="0 0 18 18" fill="none" xmlns="http://www.w3.org/2000/svg">
<g clip-path="url(#clip0_1001_12)">
<path d="M17.64 9.20455C17.64 8.56682 17.5827 7.95273 17.4764 7.36364H9V10.845H13.8436C13.635 11.97 13.0009 12.9232 12.0477 13.5618V15.8195H14.9564C16.6582 14.2527 17.64 11.9455 17.64 9.20455Z" fill="#4285F4"/>
<path d="M9 18C11.43 18 13.4673 17.1941 14.9564 15.8195L12.0477 13.5618C11.2418 14.1018 10.2109 14.4205 9 14.4205C6.66 14.4205 4.67182 12.8373 3.96409 10.71H0.957275V13.0418C2.43818 15.9873 5.48182 18 9 18Z" fill="#34A853"/>
<path d="M3.96409 10.71C3.78409 10.17 3.68182 9.59318 3.68182 9C3.68182 8.40682 3.78409 7.83 3.96409 7.29H0.957275V9.62182C0.347727 7.56 0.347727 5.31955 1.48909 3.48818L3.96409 5.29C4.67182 3.16273 6.66 1.57955 9 1.57955C10.2109 1.57955 11.2418 1.89818 12.0477 2.43818L14.9564 0C13.4673 1.38591 11.43 0 9 0C5.48182 0 2.43818 2.01273 0.957275 4.95818C0.347727 6.13364 0 7.52182 0 9C0 10.4782 0.347727 11.8664 0.957275 13.0418L3.96409 10.71Z" fill="#FBBC05"/>
<path d="M9 3.57955C10.3214 3.57955 11.5077 4.02455 12.4782 4.95818L15.0218 2.43818C13.4673 0.921818 11.43 0 9 0C5.48182 0 2.43818 2.01273 0.957275 4.95818C0.347727 6.13364 0 7.52182 0 9C0 10.4782 0.347727 11.8664 0.957275 13.0418L3.96409 10.71C3.16273 8.83727 4.67182 5.57955 9 5.57955Z" fill="#EA4335"/>
</g>
<defs>
<clipPath id="clip0_1001_12">
<rect width="18" height="18" fill="white"/>
</clipPath>
</defs>
</svg> 